<svg xmlns="http://www.w3.org/2000/svg" viewBox="0 0 1200 800">
<rect width="1200" height="800" fill="#2563eb"/>
<g fill="#fff" stroke="none">
<!-- Angel silhouette paths from angel-silhouette.svg -->
<path d="M5721 7500 c-23 -99 -25 -240 -6 -345 10 -52 21 -95 25 -95 11 0 30 74 42 164 12 96 -2 225 -31 291 l-18 40 -12 -55z" transform="translate(0,800) scale(0.1,-0.1)"/>
<path d="M5341 7363 c22 -116 73 -227 139 -303 l39 -45 1 30 c0 78 -101 288 -169 349 -18 16 -18 15 -10 -31z" transform="translate(0,800) scale(0.1,-0.1)"/>
<path d="M6101 7353 c-55 -64 -107 -172 -125 -258 -13 -61 -14 -88 -3 -74 54 66 91 121 115 171 31 67 69 195 60 204 -3 3 -24 -17 -47 -43z" transform="translate(0,800) scale(0.1,-0.1)"/>
<path d="M6451 7209 c-123 -77 -221 -175 -286 -287 -18 -32 151 75 222 141 47 43 159 185 151 192 -2 2 -41 -18 -87 -46z" transform="translate(0,800) scale(0.1,-0.1)"/>
<path d="M4950 7244 c0 -15 134 -174 179 -211 61 -52 180 -128 188 -120 9 10 -83 132 -139 182 -46 42 -209 155 -223 155 -3 0 -5 -3 -5 -6z" transform="translate(0,800) scale(0.1,-0.1)"/>
</g>
</svg>
